<mxfile host="app.diagrams.net" modified="2023-04-12T15:00:37.342Z" agent="Mozilla/5.0 (X11; Linux x86_64) AppleWebKit/537.36 (KHTML, like Gecko) Chrome/111.0.0.0 Safari/537.36" etag="toQyfHFcLepkCGEGsGWM" version="21.1.5" type="device">
  <diagram name="Page-1" id="WNyqfBTd4fgz2Zodxci5">
    <mxGraphModel dx="1659" dy="1980" grid="1" gridSize="10" guides="1" tooltips="1" connect="1" arrows="1" fold="1" page="1" pageScale="1" pageWidth="850" pageHeight="1100" math="0" shadow="0">
      <root>
        <mxCell id="0" />
        <mxCell id="1" parent="0" />
        <mxCell id="DlOSKRozZTtwgmkj-exv-3" style="edgeStyle=orthogonalEdgeStyle;rounded=1;orthogonalLoop=1;jettySize=auto;html=1;exitX=0.5;exitY=0;exitDx=0;exitDy=0;entryX=0.019;entryY=0.994;entryDx=0;entryDy=0;entryPerimeter=0;shape=link;labelBackgroundColor=none;fontColor=default;" edge="1" parent="1" source="ICdFZRIl4eGUogSCA55H-49" target="ICdFZRIl4eGUogSCA55H-126">
          <mxGeometry relative="1" as="geometry">
            <Array as="points">
              <mxPoint x="230" y="190" />
              <mxPoint x="62" y="190" />
            </Array>
          </mxGeometry>
        </mxCell>
        <mxCell id="ICdFZRIl4eGUogSCA55H-1" value="&lt;font data-font-src=&quot;https://fonts.googleapis.com/css?family=JetBrains+Mono&quot; face=&quot;JetBrains Mono&quot;&gt;alvmhost&lt;br&gt;&lt;span style=&quot;font-weight: normal;&quot;&gt;(Arch Linux Virtual Machine Host)&lt;/span&gt;&lt;br&gt;&lt;/font&gt;" style="swimlane;whiteSpace=wrap;html=1;startSize=40;labelBackgroundColor=none;rounded=1;" parent="1" vertex="1">
          <mxGeometry x="40" y="320" width="360" height="220" as="geometry" />
        </mxCell>
        <mxCell id="ICdFZRIl4eGUogSCA55H-5" value="&lt;font data-font-src=&quot;https://fonts.googleapis.com/css?family=JetBrains+Mono&quot; face=&quot;JetBrains Mono&quot;&gt;CentOS&amp;nbsp;9&amp;nbsp;Stream&lt;/font&gt;" style="swimlane;horizontal=0;whiteSpace=wrap;html=1;labelBackgroundColor=none;rounded=1;" parent="ICdFZRIl4eGUogSCA55H-1" vertex="1">
          <mxGeometry x="10" y="50" width="340" height="160" as="geometry" />
        </mxCell>
        <mxCell id="ICdFZRIl4eGUogSCA55H-7" value="&lt;font data-font-src=&quot;https://fonts.googleapis.com/css?family=JetBrains+Mono&quot; face=&quot;JetBrains Mono&quot;&gt;&lt;b&gt;centvirt-main&lt;/b&gt; (CentOS 9 Stream&amp;nbsp;MAIN)&lt;/font&gt;" style="rounded=1;whiteSpace=wrap;html=1;labelBackgroundColor=none;" parent="ICdFZRIl4eGUogSCA55H-5" vertex="1">
          <mxGeometry x="30" y="10" width="300" height="20" as="geometry" />
        </mxCell>
        <mxCell id="ICdFZRIl4eGUogSCA55H-8" value="&lt;font data-font-src=&quot;https://fonts.googleapis.com/css?family=JetBrains+Mono&quot; face=&quot;JetBrains Mono&quot;&gt;&lt;b&gt;centvirt-slva&lt;/b&gt;&amp;nbsp;(CentOS 9 Stream&amp;nbsp;SLVA)&lt;/font&gt;" style="rounded=1;whiteSpace=wrap;html=1;labelBackgroundColor=none;" parent="ICdFZRIl4eGUogSCA55H-5" vertex="1">
          <mxGeometry x="30" y="40" width="300" height="20" as="geometry" />
        </mxCell>
        <mxCell id="ICdFZRIl4eGUogSCA55H-15" value="&lt;font data-font-src=&quot;https://fonts.googleapis.com/css?family=JetBrains+Mono&quot; face=&quot;JetBrains Mono&quot;&gt;&lt;b&gt;centvirt-slvb&lt;/b&gt;&amp;nbsp;(CentOS 9 Stream&amp;nbsp;SLVB)&lt;/font&gt;" style="rounded=1;whiteSpace=wrap;html=1;labelBackgroundColor=none;" parent="ICdFZRIl4eGUogSCA55H-5" vertex="1">
          <mxGeometry x="30" y="70" width="300" height="20" as="geometry" />
        </mxCell>
        <mxCell id="ICdFZRIl4eGUogSCA55H-16" value="&lt;font data-font-src=&quot;https://fonts.googleapis.com/css?family=JetBrains+Mono&quot; face=&quot;JetBrains Mono&quot;&gt;&lt;b&gt;centvirt-slvc&lt;/b&gt;&amp;nbsp;(CentOS 9 Stream&amp;nbsp;SLVC)&lt;/font&gt;" style="rounded=1;whiteSpace=wrap;html=1;labelBackgroundColor=none;" parent="ICdFZRIl4eGUogSCA55H-5" vertex="1">
          <mxGeometry x="30" y="100" width="300" height="20" as="geometry" />
        </mxCell>
        <mxCell id="ICdFZRIl4eGUogSCA55H-17" value="&lt;font data-font-src=&quot;https://fonts.googleapis.com/css?family=JetBrains+Mono&quot; face=&quot;JetBrains Mono&quot;&gt;&lt;b&gt;centvirt-slvd&lt;/b&gt;&amp;nbsp;(CentOS 9 Stream&amp;nbsp;SLVD)&lt;/font&gt;" style="rounded=1;whiteSpace=wrap;html=1;labelBackgroundColor=none;" parent="ICdFZRIl4eGUogSCA55H-5" vertex="1">
          <mxGeometry x="30" y="130" width="300" height="20" as="geometry" />
        </mxCell>
        <mxCell id="DlOSKRozZTtwgmkj-exv-10" value="" style="html=1;verticalLabelPosition=bottom;align=center;labelBackgroundColor=none;verticalAlign=top;strokeWidth=2;shadow=0;dashed=0;shape=mxgraph.ios7.icons.home;rounded=1;" vertex="1" parent="ICdFZRIl4eGUogSCA55H-1">
          <mxGeometry x="10" y="10" width="20" height="20" as="geometry" />
        </mxCell>
        <mxCell id="ICdFZRIl4eGUogSCA55H-77" style="edgeStyle=orthogonalEdgeStyle;shape=link;rounded=1;orthogonalLoop=1;jettySize=auto;html=1;exitX=1;exitY=0.5;exitDx=0;exitDy=0;entryX=0;entryY=0.5;entryDx=0;entryDy=0;labelBackgroundColor=none;fontColor=default;" parent="1" source="ICdFZRIl4eGUogSCA55H-18" target="ICdFZRIl4eGUogSCA55H-66" edge="1">
          <mxGeometry relative="1" as="geometry">
            <Array as="points">
              <mxPoint x="1000" y="390" />
              <mxPoint x="1000" y="510" />
            </Array>
          </mxGeometry>
        </mxCell>
        <mxCell id="ICdFZRIl4eGUogSCA55H-18" value="&lt;font data-font-src=&quot;https://fonts.googleapis.com/css?family=JetBrains+Mono&quot; face=&quot;JetBrains Mono&quot;&gt;&lt;b&gt;172.168.128.210&amp;nbsp;&amp;nbsp;&lt;/b&gt;(ztnetdev/tunnel/centvirt-main)&lt;/font&gt;" style="shape=delay;whiteSpace=wrap;html=1;labelBackgroundColor=none;rounded=1;" parent="1" vertex="1">
          <mxGeometry x="600" y="380" width="360" height="20" as="geometry" />
        </mxCell>
        <mxCell id="ICdFZRIl4eGUogSCA55H-32" style="edgeStyle=orthogonalEdgeStyle;rounded=1;orthogonalLoop=1;jettySize=auto;html=1;exitX=1;exitY=0.5;exitDx=0;exitDy=0;entryX=0;entryY=0.5;entryDx=0;entryDy=0;shape=link;labelBackgroundColor=none;fontColor=default;" parent="1" source="ICdFZRIl4eGUogSCA55H-22" target="ICdFZRIl4eGUogSCA55H-18" edge="1">
          <mxGeometry relative="1" as="geometry" />
        </mxCell>
        <mxCell id="ICdFZRIl4eGUogSCA55H-22" value="&lt;font data-font-src=&quot;https://fonts.googleapis.com/css?family=JetBrains+Mono&quot; face=&quot;JetBrains Mono&quot;&gt;9d3442b3&lt;/font&gt;" style="rounded=1;whiteSpace=wrap;html=1;labelBackgroundColor=none;" parent="1" vertex="1">
          <mxGeometry x="480" y="380" width="80" height="20" as="geometry" />
        </mxCell>
        <mxCell id="ICdFZRIl4eGUogSCA55H-43" style="edgeStyle=orthogonalEdgeStyle;rounded=1;orthogonalLoop=1;jettySize=auto;html=1;entryX=0;entryY=0.5;entryDx=0;entryDy=0;shape=link;labelBackgroundColor=none;fontColor=default;" parent="1" source="ICdFZRIl4eGUogSCA55H-23" target="ICdFZRIl4eGUogSCA55H-36" edge="1">
          <mxGeometry relative="1" as="geometry" />
        </mxCell>
        <mxCell id="ICdFZRIl4eGUogSCA55H-23" value="&lt;font data-font-src=&quot;https://fonts.googleapis.com/css?family=JetBrains+Mono&quot; face=&quot;JetBrains Mono&quot;&gt;b8cc0345&lt;/font&gt;" style="rounded=1;whiteSpace=wrap;html=1;labelBackgroundColor=none;" parent="1" vertex="1">
          <mxGeometry x="480" y="410" width="80" height="20" as="geometry" />
        </mxCell>
        <mxCell id="ICdFZRIl4eGUogSCA55H-44" style="edgeStyle=orthogonalEdgeStyle;rounded=1;orthogonalLoop=1;jettySize=auto;html=1;entryX=0;entryY=0.5;entryDx=0;entryDy=0;shape=link;labelBackgroundColor=none;fontColor=default;" parent="1" source="ICdFZRIl4eGUogSCA55H-24" target="ICdFZRIl4eGUogSCA55H-40" edge="1">
          <mxGeometry relative="1" as="geometry" />
        </mxCell>
        <mxCell id="ICdFZRIl4eGUogSCA55H-24" value="&lt;font data-font-src=&quot;https://fonts.googleapis.com/css?family=JetBrains+Mono&quot; face=&quot;JetBrains Mono&quot;&gt;6106775a&lt;/font&gt;" style="rounded=1;whiteSpace=wrap;html=1;labelBackgroundColor=none;" parent="1" vertex="1">
          <mxGeometry x="480" y="440" width="80" height="20" as="geometry" />
        </mxCell>
        <mxCell id="ICdFZRIl4eGUogSCA55H-45" style="edgeStyle=orthogonalEdgeStyle;rounded=1;orthogonalLoop=1;jettySize=auto;html=1;exitX=1;exitY=0.5;exitDx=0;exitDy=0;entryX=0;entryY=0.5;entryDx=0;entryDy=0;shape=link;labelBackgroundColor=none;fontColor=default;" parent="1" source="ICdFZRIl4eGUogSCA55H-25" target="ICdFZRIl4eGUogSCA55H-41" edge="1">
          <mxGeometry relative="1" as="geometry" />
        </mxCell>
        <mxCell id="ICdFZRIl4eGUogSCA55H-25" value="&lt;font data-font-src=&quot;https://fonts.googleapis.com/css?family=JetBrains+Mono&quot; face=&quot;JetBrains Mono&quot;&gt;31d09a8e&lt;/font&gt;" style="rounded=1;whiteSpace=wrap;html=1;labelBackgroundColor=none;" parent="1" vertex="1">
          <mxGeometry x="480" y="470" width="80" height="20" as="geometry" />
        </mxCell>
        <mxCell id="ICdFZRIl4eGUogSCA55H-46" style="edgeStyle=orthogonalEdgeStyle;rounded=1;orthogonalLoop=1;jettySize=auto;html=1;entryX=0;entryY=0.5;entryDx=0;entryDy=0;shape=link;labelBackgroundColor=none;fontColor=default;" parent="1" source="ICdFZRIl4eGUogSCA55H-26" target="ICdFZRIl4eGUogSCA55H-42" edge="1">
          <mxGeometry relative="1" as="geometry" />
        </mxCell>
        <mxCell id="ICdFZRIl4eGUogSCA55H-26" value="&lt;font data-font-src=&quot;https://fonts.googleapis.com/css?family=JetBrains+Mono&quot; face=&quot;JetBrains Mono&quot;&gt;ea4f79c6&lt;/font&gt;" style="rounded=1;whiteSpace=wrap;html=1;labelBackgroundColor=none;" parent="1" vertex="1">
          <mxGeometry x="480" y="500" width="80" height="20" as="geometry" />
        </mxCell>
        <mxCell id="ICdFZRIl4eGUogSCA55H-27" style="edgeStyle=orthogonalEdgeStyle;rounded=1;orthogonalLoop=1;jettySize=auto;html=1;shape=link;labelBackgroundColor=none;fontColor=default;" parent="1" source="ICdFZRIl4eGUogSCA55H-7" target="ICdFZRIl4eGUogSCA55H-22" edge="1">
          <mxGeometry relative="1" as="geometry" />
        </mxCell>
        <mxCell id="ICdFZRIl4eGUogSCA55H-28" style="edgeStyle=orthogonalEdgeStyle;rounded=1;orthogonalLoop=1;jettySize=auto;html=1;exitX=1;exitY=0.5;exitDx=0;exitDy=0;entryX=0;entryY=0.5;entryDx=0;entryDy=0;shape=link;labelBackgroundColor=none;fontColor=default;" parent="1" source="ICdFZRIl4eGUogSCA55H-8" target="ICdFZRIl4eGUogSCA55H-23" edge="1">
          <mxGeometry relative="1" as="geometry" />
        </mxCell>
        <mxCell id="ICdFZRIl4eGUogSCA55H-29" style="edgeStyle=orthogonalEdgeStyle;rounded=1;orthogonalLoop=1;jettySize=auto;html=1;exitX=1;exitY=0.5;exitDx=0;exitDy=0;entryX=0;entryY=0.5;entryDx=0;entryDy=0;shape=link;labelBackgroundColor=none;fontColor=default;" parent="1" source="ICdFZRIl4eGUogSCA55H-15" target="ICdFZRIl4eGUogSCA55H-24" edge="1">
          <mxGeometry relative="1" as="geometry" />
        </mxCell>
        <mxCell id="ICdFZRIl4eGUogSCA55H-30" style="edgeStyle=orthogonalEdgeStyle;rounded=1;orthogonalLoop=1;jettySize=auto;html=1;exitX=1;exitY=0.5;exitDx=0;exitDy=0;entryX=0;entryY=0.5;entryDx=0;entryDy=0;shape=link;labelBackgroundColor=none;fontColor=default;" parent="1" source="ICdFZRIl4eGUogSCA55H-16" target="ICdFZRIl4eGUogSCA55H-25" edge="1">
          <mxGeometry relative="1" as="geometry" />
        </mxCell>
        <mxCell id="ICdFZRIl4eGUogSCA55H-31" style="edgeStyle=orthogonalEdgeStyle;rounded=1;orthogonalLoop=1;jettySize=auto;html=1;exitX=1;exitY=0.5;exitDx=0;exitDy=0;entryX=0;entryY=0.5;entryDx=0;entryDy=0;shape=link;labelBackgroundColor=none;fontColor=default;" parent="1" source="ICdFZRIl4eGUogSCA55H-17" target="ICdFZRIl4eGUogSCA55H-26" edge="1">
          <mxGeometry relative="1" as="geometry" />
        </mxCell>
        <mxCell id="ICdFZRIl4eGUogSCA55H-78" style="edgeStyle=orthogonalEdgeStyle;shape=link;rounded=1;orthogonalLoop=1;jettySize=auto;html=1;exitX=1;exitY=0.5;exitDx=0;exitDy=0;entryX=0;entryY=0.5;entryDx=0;entryDy=0;labelBackgroundColor=none;fontColor=default;" parent="1" source="ICdFZRIl4eGUogSCA55H-36" target="ICdFZRIl4eGUogSCA55H-66" edge="1">
          <mxGeometry relative="1" as="geometry">
            <Array as="points">
              <mxPoint x="1000" y="420" />
              <mxPoint x="1000" y="510" />
            </Array>
          </mxGeometry>
        </mxCell>
        <mxCell id="ICdFZRIl4eGUogSCA55H-36" value="&lt;font data-font-src=&quot;https://fonts.googleapis.com/css?family=JetBrains+Mono&quot; face=&quot;JetBrains Mono&quot;&gt;&lt;b&gt;172.168.128.211&amp;nbsp;&amp;nbsp;&lt;/b&gt;(ztnetdev/tunnel/centvirt-slva)&lt;/font&gt;" style="shape=delay;whiteSpace=wrap;html=1;labelBackgroundColor=none;rounded=1;" parent="1" vertex="1">
          <mxGeometry x="600" y="410" width="360" height="20" as="geometry" />
        </mxCell>
        <mxCell id="ICdFZRIl4eGUogSCA55H-79" style="edgeStyle=orthogonalEdgeStyle;shape=link;rounded=1;orthogonalLoop=1;jettySize=auto;html=1;exitX=1;exitY=0.5;exitDx=0;exitDy=0;entryX=0;entryY=0.5;entryDx=0;entryDy=0;labelBackgroundColor=none;fontColor=default;" parent="1" source="ICdFZRIl4eGUogSCA55H-40" target="ICdFZRIl4eGUogSCA55H-66" edge="1">
          <mxGeometry relative="1" as="geometry">
            <Array as="points">
              <mxPoint x="1000" y="450" />
              <mxPoint x="1000" y="510" />
            </Array>
          </mxGeometry>
        </mxCell>
        <mxCell id="ICdFZRIl4eGUogSCA55H-40" value="&lt;font data-font-src=&quot;https://fonts.googleapis.com/css?family=JetBrains+Mono&quot; face=&quot;JetBrains Mono&quot;&gt;&lt;b&gt;172.168.128.212&amp;nbsp;&amp;nbsp;&lt;/b&gt;(ztnetdev/tunnel/centvirt-slvb)&lt;/font&gt;" style="shape=delay;whiteSpace=wrap;html=1;labelBackgroundColor=none;rounded=1;" parent="1" vertex="1">
          <mxGeometry x="600" y="440" width="360" height="20" as="geometry" />
        </mxCell>
        <mxCell id="ICdFZRIl4eGUogSCA55H-80" style="edgeStyle=orthogonalEdgeStyle;shape=link;rounded=1;orthogonalLoop=1;jettySize=auto;html=1;exitX=1;exitY=0.5;exitDx=0;exitDy=0;entryX=0;entryY=0.5;entryDx=0;entryDy=0;labelBackgroundColor=none;fontColor=default;" parent="1" source="ICdFZRIl4eGUogSCA55H-41" target="ICdFZRIl4eGUogSCA55H-66" edge="1">
          <mxGeometry relative="1" as="geometry">
            <Array as="points">
              <mxPoint x="1000" y="480" />
              <mxPoint x="1000" y="510" />
            </Array>
          </mxGeometry>
        </mxCell>
        <mxCell id="ICdFZRIl4eGUogSCA55H-41" value="&lt;font data-font-src=&quot;https://fonts.googleapis.com/css?family=JetBrains+Mono&quot; face=&quot;JetBrains Mono&quot;&gt;&lt;b&gt;172.168.128.213&amp;nbsp;&amp;nbsp;&lt;/b&gt;(ztnetdev/tunnel/centvirt-slvc)&lt;/font&gt;" style="shape=delay;whiteSpace=wrap;html=1;labelBackgroundColor=none;rounded=1;" parent="1" vertex="1">
          <mxGeometry x="600" y="470" width="360" height="20" as="geometry" />
        </mxCell>
        <mxCell id="ICdFZRIl4eGUogSCA55H-81" style="edgeStyle=orthogonalEdgeStyle;shape=link;rounded=1;orthogonalLoop=1;jettySize=auto;html=1;entryX=0;entryY=0.5;entryDx=0;entryDy=0;labelBackgroundColor=none;fontColor=default;" parent="1" source="ICdFZRIl4eGUogSCA55H-42" target="ICdFZRIl4eGUogSCA55H-66" edge="1">
          <mxGeometry relative="1" as="geometry" />
        </mxCell>
        <mxCell id="ICdFZRIl4eGUogSCA55H-42" value="&lt;font data-font-src=&quot;https://fonts.googleapis.com/css?family=JetBrains+Mono&quot; face=&quot;JetBrains Mono&quot;&gt;&lt;b&gt;172.168.128.214&amp;nbsp;&amp;nbsp;&lt;/b&gt;(ztnetdev/tunnel/centvirt-slvd)&lt;/font&gt;" style="shape=delay;whiteSpace=wrap;html=1;labelBackgroundColor=none;rounded=1;" parent="1" vertex="1">
          <mxGeometry x="600" y="500" width="360" height="20" as="geometry" />
        </mxCell>
        <mxCell id="ICdFZRIl4eGUogSCA55H-47" value="&lt;font data-font-src=&quot;https://fonts.googleapis.com/css?family=JetBrains+Mono&quot; face=&quot;JetBrains Mono&quot;&gt;OCI Always Free&lt;br&gt;&lt;span style=&quot;font-weight: normal;&quot;&gt;(Oracle Cloud Infrastructure)&lt;/span&gt;&lt;br&gt;&lt;/font&gt;" style="swimlane;whiteSpace=wrap;html=1;startSize=40;labelBackgroundColor=none;rounded=1;" parent="1" vertex="1">
          <mxGeometry x="40" y="200" width="360" height="100" as="geometry" />
        </mxCell>
        <mxCell id="ICdFZRIl4eGUogSCA55H-48" value="&lt;font data-font-src=&quot;https://fonts.googleapis.com/css?family=JetBrains+Mono&quot; face=&quot;JetBrains Mono&quot;&gt;C8S&lt;/font&gt;" style="swimlane;horizontal=0;whiteSpace=wrap;html=1;labelBackgroundColor=none;rounded=1;" parent="ICdFZRIl4eGUogSCA55H-47" vertex="1">
          <mxGeometry x="10" y="50" width="340" height="40" as="geometry" />
        </mxCell>
        <mxCell id="ICdFZRIl4eGUogSCA55H-49" value="&lt;font face=&quot;JetBrains Mono&quot;&gt;&lt;b&gt;odvmhost &lt;/b&gt;(CentOS 8&amp;nbsp;&lt;/font&gt;&lt;font face=&quot;JetBrains Mono&quot;&gt;Stream MAIN)&lt;/font&gt;" style="rounded=1;whiteSpace=wrap;html=1;labelBackgroundColor=none;" parent="ICdFZRIl4eGUogSCA55H-48" vertex="1">
          <mxGeometry x="30" y="10" width="300" height="20" as="geometry" />
        </mxCell>
        <mxCell id="DlOSKRozZTtwgmkj-exv-11" value="" style="html=1;verticalLabelPosition=bottom;align=center;labelBackgroundColor=none;verticalAlign=top;strokeWidth=2;shadow=0;dashed=0;shape=mxgraph.ios7.icons.globe;rounded=1;" vertex="1" parent="ICdFZRIl4eGUogSCA55H-47">
          <mxGeometry x="10" y="10" width="20" height="20" as="geometry" />
        </mxCell>
        <mxCell id="ICdFZRIl4eGUogSCA55H-57" style="edgeStyle=orthogonalEdgeStyle;rounded=1;orthogonalLoop=1;jettySize=auto;html=1;exitX=1;exitY=0.5;exitDx=0;exitDy=0;entryX=0;entryY=0.5;entryDx=0;entryDy=0;shape=link;labelBackgroundColor=none;fontColor=default;" parent="1" source="ICdFZRIl4eGUogSCA55H-54" target="ICdFZRIl4eGUogSCA55H-55" edge="1">
          <mxGeometry relative="1" as="geometry" />
        </mxCell>
        <mxCell id="ICdFZRIl4eGUogSCA55H-54" value="&lt;font face=&quot;JetBrains Mono&quot;&gt;16f467c6&lt;/font&gt;" style="rounded=1;whiteSpace=wrap;html=1;labelBackgroundColor=none;" parent="1" vertex="1">
          <mxGeometry x="480" y="300" width="80" height="20" as="geometry" />
        </mxCell>
        <mxCell id="ICdFZRIl4eGUogSCA55H-68" style="edgeStyle=orthogonalEdgeStyle;rounded=1;orthogonalLoop=1;jettySize=auto;html=1;exitX=1;exitY=0.5;exitDx=0;exitDy=0;entryX=0;entryY=0.5;entryDx=0;entryDy=0;shape=link;labelBackgroundColor=none;fontColor=default;" parent="1" source="ICdFZRIl4eGUogSCA55H-55" target="ICdFZRIl4eGUogSCA55H-66" edge="1">
          <mxGeometry relative="1" as="geometry">
            <Array as="points">
              <mxPoint x="1000" y="310" />
              <mxPoint x="1000" y="510" />
            </Array>
          </mxGeometry>
        </mxCell>
        <mxCell id="ICdFZRIl4eGUogSCA55H-55" value="&lt;font data-font-src=&quot;https://fonts.googleapis.com/css?family=JetBrains+Mono&quot; face=&quot;JetBrains Mono&quot;&gt;&lt;b&gt;172.168.128.200&amp;nbsp; &amp;nbsp; &amp;nbsp; &amp;nbsp;&lt;/b&gt;(ztnetdev/tunnel/odvmhost)&lt;/font&gt;" style="shape=delay;whiteSpace=wrap;html=1;labelBackgroundColor=none;rounded=1;" parent="1" vertex="1">
          <mxGeometry x="600" y="300" width="360" height="20" as="geometry" />
        </mxCell>
        <mxCell id="ICdFZRIl4eGUogSCA55H-56" style="edgeStyle=orthogonalEdgeStyle;rounded=1;orthogonalLoop=1;jettySize=auto;html=1;exitX=1;exitY=0.5;exitDx=0;exitDy=0;entryX=0;entryY=0.5;entryDx=0;entryDy=0;shape=link;labelBackgroundColor=none;fontColor=default;" parent="1" source="ICdFZRIl4eGUogSCA55H-49" target="ICdFZRIl4eGUogSCA55H-54" edge="1">
          <mxGeometry relative="1" as="geometry">
            <Array as="points">
              <mxPoint x="440" y="270" />
              <mxPoint x="440" y="310" />
            </Array>
          </mxGeometry>
        </mxCell>
        <mxCell id="ICdFZRIl4eGUogSCA55H-58" value="&lt;font data-font-src=&quot;https://fonts.googleapis.com/css?family=JetBrains+Mono&quot; face=&quot;JetBrains Mono&quot;&gt;ZeroTier&lt;br&gt;&lt;span style=&quot;font-weight: normal;&quot;&gt;(Managed Secure Virtual Network)&lt;/span&gt;&lt;br&gt;&lt;/font&gt;" style="swimlane;whiteSpace=wrap;html=1;startSize=40;labelBackgroundColor=none;rounded=1;" parent="1" vertex="1">
          <mxGeometry x="1040" y="360" width="320" height="180" as="geometry" />
        </mxCell>
        <mxCell id="ICdFZRIl4eGUogSCA55H-65" value="&lt;font face=&quot;JetBrains Mono&quot;&gt;&lt;b&gt;frontier&lt;/b&gt;&lt;/font&gt;" style="rounded=1;whiteSpace=wrap;html=1;labelBackgroundColor=none;" parent="ICdFZRIl4eGUogSCA55H-58" vertex="1">
          <mxGeometry x="10" y="100" width="300" height="20" as="geometry" />
        </mxCell>
        <mxCell id="ICdFZRIl4eGUogSCA55H-66" value="&lt;font data-font-src=&quot;https://fonts.googleapis.com/css?family=JetBrains+Mono&quot; face=&quot;JetBrains Mono&quot;&gt;&lt;b&gt;Secure DHCP server&lt;/b&gt;&lt;br&gt;(From 172.168.128.0 to 172.168.128.255)&lt;br&gt;&lt;/font&gt;" style="rounded=1;whiteSpace=wrap;html=1;labelBackgroundColor=none;" parent="ICdFZRIl4eGUogSCA55H-58" vertex="1">
          <mxGeometry x="10" y="130" width="300" height="40" as="geometry" />
        </mxCell>
        <mxCell id="ICdFZRIl4eGUogSCA55H-133" value="&lt;font face=&quot;JetBrains Mono&quot;&gt;&lt;b&gt;ZeroTier Central&lt;/b&gt;&lt;br&gt;(Proprietary Management Interface)&lt;br&gt;&lt;/font&gt;" style="rounded=1;whiteSpace=wrap;html=1;labelBackgroundColor=none;" parent="ICdFZRIl4eGUogSCA55H-58" vertex="1">
          <mxGeometry x="10" y="50" width="300" height="40" as="geometry" />
        </mxCell>
        <mxCell id="DlOSKRozZTtwgmkj-exv-15" value="" style="html=1;strokeWidth=1;shadow=0;dashed=0;shape=mxgraph.ios7.misc.switch;strokeColor=none;buttonText=;strokeColor2=#222222;fontSize=8;verticalLabelPosition=bottom;verticalAlign=top;align=center;sketch=0;rounded=1;labelBackgroundColor=none;" vertex="1" parent="ICdFZRIl4eGUogSCA55H-58">
          <mxGeometry x="10" y="10" width="20" height="20" as="geometry" />
        </mxCell>
        <mxCell id="DlOSKRozZTtwgmkj-exv-5" style="edgeStyle=orthogonalEdgeStyle;rounded=1;orthogonalLoop=1;jettySize=auto;html=1;exitX=1;exitY=0.5;exitDx=0;exitDy=0;entryX=0.018;entryY=0.995;entryDx=0;entryDy=0;entryPerimeter=0;shape=link;labelBackgroundColor=none;fontColor=default;" edge="1" parent="1" source="ICdFZRIl4eGUogSCA55H-76" target="ICdFZRIl4eGUogSCA55H-103">
          <mxGeometry relative="1" as="geometry">
            <Array as="points">
              <mxPoint x="1000" y="230" />
              <mxPoint x="1000" y="190" />
              <mxPoint x="731" y="190" />
            </Array>
          </mxGeometry>
        </mxCell>
        <mxCell id="ICdFZRIl4eGUogSCA55H-76" value="&lt;font data-font-src=&quot;https://fonts.googleapis.com/css?family=JetBrains+Mono&quot; face=&quot;JetBrains Mono&quot;&gt;&lt;b&gt;224.192.128.168&amp;nbsp; &amp;nbsp;&amp;nbsp;&lt;/b&gt;(Publicly Accessible Address)&lt;/font&gt;" style="shape=delay;whiteSpace=wrap;html=1;labelBackgroundColor=none;rounded=1;" parent="1" vertex="1">
          <mxGeometry x="600" y="220" width="360" height="20" as="geometry" />
        </mxCell>
        <mxCell id="ICdFZRIl4eGUogSCA55H-85" style="edgeStyle=orthogonalEdgeStyle;shape=link;rounded=1;orthogonalLoop=1;jettySize=auto;html=1;entryX=0;entryY=0.5;entryDx=0;entryDy=0;labelBackgroundColor=none;fontColor=default;" parent="1" source="ICdFZRIl4eGUogSCA55H-83" target="ICdFZRIl4eGUogSCA55H-76" edge="1">
          <mxGeometry relative="1" as="geometry" />
        </mxCell>
        <mxCell id="ICdFZRIl4eGUogSCA55H-83" value="&lt;font face=&quot;JetBrains Mono&quot;&gt;NO UUID&lt;/font&gt;" style="rounded=1;whiteSpace=wrap;html=1;labelBackgroundColor=none;" parent="1" vertex="1">
          <mxGeometry x="480" y="220" width="80" height="20" as="geometry" />
        </mxCell>
        <mxCell id="ICdFZRIl4eGUogSCA55H-84" style="edgeStyle=orthogonalEdgeStyle;shape=link;rounded=1;orthogonalLoop=1;jettySize=auto;html=1;entryX=0;entryY=0.5;entryDx=0;entryDy=0;labelBackgroundColor=none;fontColor=default;" parent="1" source="ICdFZRIl4eGUogSCA55H-49" target="ICdFZRIl4eGUogSCA55H-83" edge="1">
          <mxGeometry relative="1" as="geometry">
            <Array as="points">
              <mxPoint x="440" y="270" />
              <mxPoint x="440" y="230" />
            </Array>
          </mxGeometry>
        </mxCell>
        <mxCell id="ICdFZRIl4eGUogSCA55H-86" value="&lt;font data-font-src=&quot;https://fonts.googleapis.com/css?family=JetBrains+Mono&quot; face=&quot;JetBrains Mono&quot;&gt;Google Domains&lt;br&gt;&lt;span style=&quot;font-weight: normal;&quot;&gt;(For the purchased domain called coolname.live)&lt;/span&gt;&lt;br&gt;&lt;/font&gt;" style="swimlane;whiteSpace=wrap;html=1;startSize=40;labelBackgroundColor=none;rounded=1;" parent="1" vertex="1">
          <mxGeometry x="710" y="-40" width="650" height="220" as="geometry" />
        </mxCell>
        <mxCell id="ICdFZRIl4eGUogSCA55H-103" value="&lt;font data-font-src=&quot;https://fonts.googleapis.com/css?family=JetBrains+Mono&quot; face=&quot;JetBrains Mono&quot;&gt;Domain Name Server&lt;/font&gt;" style="swimlane;horizontal=0;whiteSpace=wrap;html=1;labelBackgroundColor=none;rounded=1;" parent="ICdFZRIl4eGUogSCA55H-86" vertex="1">
          <mxGeometry x="10" y="50" width="630" height="160" as="geometry" />
        </mxCell>
        <mxCell id="ICdFZRIl4eGUogSCA55H-104" value="&lt;font data-font-src=&quot;https://fonts.googleapis.com/css?family=JetBrains+Mono&quot; face=&quot;JetBrains Mono&quot;&gt;&lt;b&gt;centvirt-main.coolname.live&amp;nbsp;&lt;/b&gt;(Type A / TTL 1 hour / Resolves to 224.192.128.168)&lt;/font&gt;" style="rounded=1;whiteSpace=wrap;html=1;align=center;labelBackgroundColor=none;" parent="ICdFZRIl4eGUogSCA55H-103" vertex="1">
          <mxGeometry x="30" y="7.5" width="590" height="22.5" as="geometry" />
        </mxCell>
        <mxCell id="ICdFZRIl4eGUogSCA55H-120" value="&lt;font data-font-src=&quot;https://fonts.googleapis.com/css?family=JetBrains+Mono&quot; face=&quot;JetBrains Mono&quot;&gt;&lt;b&gt;centvirt-slva.coolname.live&amp;nbsp;&lt;/b&gt;(Type A / TTL 1 hour / Resolves to 224.192.128.168)&lt;/font&gt;" style="rounded=1;whiteSpace=wrap;html=1;align=center;labelBackgroundColor=none;" parent="ICdFZRIl4eGUogSCA55H-103" vertex="1">
          <mxGeometry x="30" y="40" width="590" height="22.5" as="geometry" />
        </mxCell>
        <mxCell id="ICdFZRIl4eGUogSCA55H-121" value="&lt;font data-font-src=&quot;https://fonts.googleapis.com/css?family=JetBrains+Mono&quot; face=&quot;JetBrains Mono&quot;&gt;&lt;b&gt;centvirt-slvb.coolname.live&amp;nbsp;&lt;/b&gt;(Type A / TTL 1 hour / Resolves to 224.192.128.168)&lt;/font&gt;" style="rounded=1;whiteSpace=wrap;html=1;align=center;labelBackgroundColor=none;" parent="ICdFZRIl4eGUogSCA55H-103" vertex="1">
          <mxGeometry x="30" y="70" width="590" height="22.5" as="geometry" />
        </mxCell>
        <mxCell id="ICdFZRIl4eGUogSCA55H-122" value="&lt;font data-font-src=&quot;https://fonts.googleapis.com/css?family=JetBrains+Mono&quot; face=&quot;JetBrains Mono&quot;&gt;&lt;b&gt;centvirt-slvc.coolname.live&amp;nbsp;&lt;/b&gt;(Type A / TTL 1 hour / Resolves to 224.192.128.168)&lt;/font&gt;" style="rounded=1;whiteSpace=wrap;html=1;align=center;labelBackgroundColor=none;" parent="ICdFZRIl4eGUogSCA55H-103" vertex="1">
          <mxGeometry x="30" y="100" width="590" height="22.5" as="geometry" />
        </mxCell>
        <mxCell id="ICdFZRIl4eGUogSCA55H-123" value="&lt;font data-font-src=&quot;https://fonts.googleapis.com/css?family=JetBrains+Mono&quot; face=&quot;JetBrains Mono&quot;&gt;&lt;b&gt;centvirt-slvd.coolname.live&amp;nbsp;&lt;/b&gt;(Type A / TTL 1 hour / Resolves to 224.192.128.168)&lt;/font&gt;" style="rounded=1;whiteSpace=wrap;html=1;align=center;labelBackgroundColor=none;" parent="ICdFZRIl4eGUogSCA55H-103" vertex="1">
          <mxGeometry x="30" y="130" width="590" height="22.5" as="geometry" />
        </mxCell>
        <mxCell id="DlOSKRozZTtwgmkj-exv-14" value="" style="image;aspect=fixed;html=1;points=[];align=center;fontSize=12;image=img/lib/azure2/networking/DNS_Zones.svg;rounded=1;labelBackgroundColor=none;" vertex="1" parent="ICdFZRIl4eGUogSCA55H-86">
          <mxGeometry x="10" y="10" width="20" height="20" as="geometry" />
        </mxCell>
        <mxCell id="ICdFZRIl4eGUogSCA55H-124" value="&lt;font data-font-src=&quot;https://fonts.googleapis.com/css?family=JetBrains+Mono&quot; face=&quot;JetBrains Mono&quot;&gt;HAProxy&lt;br&gt;&lt;span style=&quot;font-weight: normal;&quot;&gt;(Load Balancer and Reverse Proxy)&lt;/span&gt;&lt;br&gt;&lt;/font&gt;" style="swimlane;whiteSpace=wrap;html=1;startSize=40;labelBackgroundColor=none;rounded=1;" parent="1" vertex="1">
          <mxGeometry x="40" y="-40" width="650" height="220" as="geometry" />
        </mxCell>
        <mxCell id="ICdFZRIl4eGUogSCA55H-126" value="&lt;font data-font-src=&quot;https://fonts.googleapis.com/css?family=JetBrains+Mono&quot; face=&quot;JetBrains Mono&quot;&gt;Services&lt;/font&gt;" style="swimlane;horizontal=0;whiteSpace=wrap;html=1;labelBackgroundColor=none;rounded=1;" parent="ICdFZRIl4eGUogSCA55H-124" vertex="1">
          <mxGeometry x="10" y="50" width="630" height="160" as="geometry" />
        </mxCell>
        <mxCell id="ICdFZRIl4eGUogSCA55H-127" value="&lt;font data-font-src=&quot;https://fonts.googleapis.com/css?family=JetBrains+Mono&quot; face=&quot;JetBrains Mono&quot;&gt;&lt;b&gt;centvirt-main.coolname.live (PORT) -&amp;gt; &lt;/b&gt;172.168.128.210 (PORT)&lt;/font&gt;" style="rounded=1;whiteSpace=wrap;html=1;align=center;labelBackgroundColor=none;" parent="ICdFZRIl4eGUogSCA55H-126" vertex="1">
          <mxGeometry x="30" y="7.5" width="590" height="22.5" as="geometry" />
        </mxCell>
        <mxCell id="ICdFZRIl4eGUogSCA55H-128" value="&lt;font data-font-src=&quot;https://fonts.googleapis.com/css?family=JetBrains+Mono&quot; face=&quot;JetBrains Mono&quot;&gt;&lt;font data-font-src=&quot;https://fonts.googleapis.com/css?family=JetBrains+Mono&quot;&gt;&lt;b&gt;centvirt-slva.coolname.live&lt;/b&gt;&lt;/font&gt;&lt;b style=&quot;&quot;&gt;&amp;nbsp;(PORT) -&amp;gt;&amp;nbsp;&lt;/b&gt;172.168.128.211 (PORT)&lt;/font&gt;" style="rounded=1;whiteSpace=wrap;html=1;align=center;labelBackgroundColor=none;" parent="ICdFZRIl4eGUogSCA55H-126" vertex="1">
          <mxGeometry x="30" y="40" width="590" height="22.5" as="geometry" />
        </mxCell>
        <mxCell id="ICdFZRIl4eGUogSCA55H-129" value="&lt;font data-font-src=&quot;https://fonts.googleapis.com/css?family=JetBrains+Mono&quot; face=&quot;JetBrains Mono&quot;&gt;&lt;font data-font-src=&quot;https://fonts.googleapis.com/css?family=JetBrains+Mono&quot;&gt;&lt;b&gt;centvirt-slvb.coolname.live&lt;/b&gt;&lt;/font&gt;&lt;b style=&quot;&quot;&gt;&amp;nbsp;(PORT) -&amp;gt;&amp;nbsp;&lt;/b&gt;172.168.128.212 (PORT)&lt;/font&gt;" style="rounded=1;whiteSpace=wrap;html=1;align=center;labelBackgroundColor=none;" parent="ICdFZRIl4eGUogSCA55H-126" vertex="1">
          <mxGeometry x="30" y="70" width="590" height="22.5" as="geometry" />
        </mxCell>
        <mxCell id="ICdFZRIl4eGUogSCA55H-130" value="&lt;font data-font-src=&quot;https://fonts.googleapis.com/css?family=JetBrains+Mono&quot; face=&quot;JetBrains Mono&quot;&gt;&lt;font data-font-src=&quot;https://fonts.googleapis.com/css?family=JetBrains+Mono&quot;&gt;&lt;b&gt;centvirt-slvc.coolname.live&lt;/b&gt;&lt;/font&gt;&lt;b style=&quot;&quot;&gt;&amp;nbsp;(PORT) -&amp;gt;&amp;nbsp;&lt;/b&gt;172.168.128.213 (PORT)&lt;/font&gt;" style="rounded=1;whiteSpace=wrap;html=1;align=center;labelBackgroundColor=none;" parent="ICdFZRIl4eGUogSCA55H-126" vertex="1">
          <mxGeometry x="30" y="100" width="590" height="22.5" as="geometry" />
        </mxCell>
        <mxCell id="ICdFZRIl4eGUogSCA55H-131" value="&lt;font data-font-src=&quot;https://fonts.googleapis.com/css?family=JetBrains+Mono&quot; face=&quot;JetBrains Mono&quot;&gt;&lt;font data-font-src=&quot;https://fonts.googleapis.com/css?family=JetBrains+Mono&quot;&gt;&lt;b&gt;centvirt-slvd.coolname.live&lt;/b&gt;&lt;/font&gt;&lt;b style=&quot;&quot;&gt;&amp;nbsp;(PORT) -&amp;gt;&amp;nbsp;&lt;/b&gt;172.168.128.214 (PORT)&lt;/font&gt;" style="rounded=1;whiteSpace=wrap;html=1;align=center;labelBackgroundColor=none;" parent="ICdFZRIl4eGUogSCA55H-126" vertex="1">
          <mxGeometry x="30" y="130" width="590" height="22.5" as="geometry" />
        </mxCell>
        <mxCell id="DlOSKRozZTtwgmkj-exv-13" value="" style="shadow=0;dashed=0;html=1;labelPosition=center;verticalLabelPosition=bottom;verticalAlign=top;align=center;outlineConnect=0;shape=mxgraph.veeam.3d.proxy;rounded=1;labelBackgroundColor=none;" vertex="1" parent="ICdFZRIl4eGUogSCA55H-124">
          <mxGeometry x="10" y="10" width="20" height="20" as="geometry" />
        </mxCell>
        <mxCell id="DlOSKRozZTtwgmkj-exv-8" value="" style="group;labelBackgroundColor=none;" vertex="1" connectable="0" parent="1">
          <mxGeometry x="1040" y="200" width="320" height="140" as="geometry" />
        </mxCell>
        <mxCell id="DlOSKRozZTtwgmkj-exv-1" value="" style="rounded=1;whiteSpace=wrap;html=1;labelBackgroundColor=none;container=0;" vertex="1" parent="DlOSKRozZTtwgmkj-exv-8">
          <mxGeometry width="320" height="140" as="geometry" />
        </mxCell>
        <mxCell id="ICdFZRIl4eGUogSCA55H-142" value="&lt;h1&gt;&lt;font data-font-src=&quot;https://fonts.googleapis.com/css?family=JetBrains+Mono&quot; face=&quot;JetBrains Mono&quot;&gt;Network Diagram B&lt;/font&gt;&lt;/h1&gt;&lt;p&gt;&lt;font data-font-src=&quot;https://fonts.googleapis.com/css?family=JetBrains+Mono&quot; face=&quot;JetBrains Mono&quot;&gt;&lt;br&gt;This diagram details how the entities (both baremetal and virtual) are connected from a managed secure intranet to the publicly accessible internet&lt;/font&gt;&lt;/p&gt;" style="text;html=1;strokeColor=none;fillColor=none;spacing=5;spacingTop=-20;whiteSpace=wrap;overflow=hidden;rounded=1;align=right;labelBackgroundColor=none;container=0;" parent="DlOSKRozZTtwgmkj-exv-8" vertex="1">
          <mxGeometry x="10" y="5" width="300" height="130" as="geometry" />
        </mxCell>
      </root>
    </mxGraphModel>
  </diagram>
</mxfile>
